<?xml version="1.0" standalone="no"?>
<!DOCTYPE svg PUBLIC "-//W3C//DTD SVG 20010904//EN"
 "http://www.w3.org/TR/2001/REC-SVG-20010904/DTD/svg10.dtd">
<svg version="1.0" xmlns="http://www.w3.org/2000/svg"
 width="512.000000pt" height="512.000000pt" viewBox="0 0 512.000000 512.000000"
 preserveAspectRatio="xMidYMid meet">

<g transform="translate(0.000000,512.000000) scale(0.100000,-0.100000)"
fill="#000000" stroke="none">
<path d="M2450 4954 c-14 -2 -52 -9 -85 -15 -136 -23 -309 -98 -421 -182 -70
-53 -196 -183 -241 -247 -71 -104 -136 -260 -164 -395 -22 -101 -17 -286 10
-384 70 -260 259 -624 552 -1064 66 -98 119 -180 119 -182 0 -2 -58 -5 -130
-7 -165 -4 -164 -3 -168 -137 l-4 -99 -99 -4 -99 -3 -181 -181 -180 -181 3
-289 c3 -275 4 -291 25 -330 24 -44 79 -98 112 -109 21 -6 21 -11 21 -415 l0
-408 -140 -4 c-117 -2 -142 -6 -157 -21 -23 -23 -23 -91 0 -114 17 -17 91 -18
1320 -21 930 -2 1310 1 1329 9 55 23 60 110 7 136 -15 8 -70 13 -151 13 l-128
0 0 409 c0 405 0 410 21 416 33 11 88 65 112 109 21 39 22 55 25 330 l3 289
-180 181 -181 181 -99 3 -99 4 -4 99 c-4 134 -3 133 -168 137 -72 2 -130 6
-130 9 0 3 29 46 64 97 296 427 534 876 608 1148 26 97 31 282 9 383 -43 204
-129 370 -270 518 -152 159 -326 258 -536 303 -69 15 -277 27 -325 18z m330
-183 c354 -95 602 -381 652 -752 21 -163 -21 -328 -157 -604 -79 -159 -255
-461 -376 -642 -109 -163 -331 -473 -338 -473 -12 0 -174 226 -316 440 -259
387 -437 715 -516 947 -41 123 -43 133 -43 248 0 92 5 139 21 200 95 353 375
603 738 659 67 10 261 -3 335 -23z m-386 -2526 c31 -41 56 -77 56 -80 0 -3
-83 -5 -185 -5 l-185 0 0 80 0 80 129 0 129 0 56 -75z m646 -5 l0 -80 -185 0
c-102 0 -185 2 -185 5 0 3 25 39 56 80 l56 75 129 0 129 0 0 -80z m-1042 -860
c-5 -74 -23 -95 -78 -95 -55 0 -73 21 -78 95 l-4 60 82 0 82 0 -4 -60z m640 0
c-5 -74 -23 -95 -78 -95 -55 0 -73 21 -78 95 l-4 60 82 0 82 0 -4 -60z m640 0
c-5 -74 -23 -95 -78 -95 -55 0 -73 21 -78 95 l-4 60 82 0 82 0 -4 -60z m-958
-820 l0 -240 -160 0 -160 0 0 240 0 240 160 0 160 0 0 -240z m800 160 l0 -80
-160 0 -160 0 0 80 0 80 160 0 160 0 0 -80z"/>
<path d="M2431 4630 c-157 -33 -262 -91 -376 -205 -100 -99 -146 -175 -187
-305 -33 -108 -33 -292 0 -400 40 -127 88 -206 182 -301 94 -95 175 -146 298
-187 67 -23 94 -26 212 -26 118 0 145 3 212 26 119 40 204 92 294 182 90 90
142 175 182 294 23 67 26 94 26 212 0 118 -3 145 -26 212 -41 123 -92 204
-187 298 -94 93 -174 142 -296 180 -79 25 -260 35 -334 20z"/>
</g>
</svg>
